<svg width="180" height="134" viewBox="0 0 180 134" fill="none" xmlns="http://www.w3.org/2000/svg">
<g id="Group 50">
<path id="Vector" d="M91.8937 24.3865C92.9083 24.4472 93.9168 24.5864 94.9099 24.8029C96.6092 25.2872 98.3085 25.3721 98.9883 23.6133C99.3536 22.7127 98.6229 21.3703 98.2915 19.7899C98.8013 19.7899 99.8294 19.4161 100.586 19.7304C103.381 20.8945 104.384 19.7304 104.392 16.8671C106.814 16.6802 108.819 16.0175 109.133 13.1202C109.184 12.6189 110.459 11.9137 111.198 11.8797C116.729 11.5823 117.145 11.2084 117.29 6.27197L120.043 7.78435L120.34 4.30078C122.192 3.45113 123.382 8.30264 125.871 5.4903C128.123 7.84383 129.967 7.68239 135.54 4.56418C134.979 5.4903 134.572 6.16152 134.113 6.90072C136.458 8.8804 137.375 5.75369 139.653 5.4648C134.996 10.0359 137.766 13.6469 139.933 17.5638C140.621 18.7958 140.128 20.869 139.746 22.4493C139.313 24.2166 138.2 25.8479 137.741 27.5897C137.027 30.3086 136.628 33.1039 135.931 36.7065L133.382 33.8261C131.813 35.184 130.327 36.6338 128.93 38.1679C128.42 38.7796 128.641 39.9946 128.582 40.4449L139.805 41.2946L139.89 40.7678C139.565 40.6655 139.25 40.5347 138.947 40.3769C138.626 40.1202 138.327 39.8359 138.055 39.5273L140.749 37.9045C141.896 41.3031 141.598 45.7722 146.458 46.5709C146.934 46.6474 147.495 46.2056 147.996 46.0101C151.165 48.3892 154.19 51.3799 158.447 53.0197C157.274 54.5321 155.796 55.5687 158.107 57.0471C158.804 57.4804 158.566 59.4176 158.761 60.6751L160.061 61.2953C160.439 60.6601 160.752 59.9883 160.996 59.2902C161.905 55.5942 164.921 53.6315 167.436 51.2355C168.796 49.944 169.815 49.8506 171.158 51.312C172.339 52.6034 174.148 53.3681 175.142 54.7105C177.054 57.3615 179.832 60.2418 179.951 63.1136C180.113 66.971 177.623 70.6245 173.919 72.7996C170.767 74.6433 167.81 74.0571 165.159 71.7885C162.746 69.7239 160.443 67.5403 157.962 65.2462C159.126 68.271 156.263 69.3245 154.657 71.1938C154.284 71.6356 154.309 72.4173 153.808 72.4937L149.186 75.3146C148.659 75.408 147.631 75.6204 146.586 75.7394C145.541 75.8584 144.241 76.2237 143.23 75.9263C141.387 75.3534 139.612 74.5813 137.936 73.6238C136.993 73.1055 136.364 72.0349 135.455 71.4402C133.178 69.9533 132.227 67.5743 130.961 65.3737C130.765 65.0338 129.975 65.0253 130.247 65.1103C129.397 63.1306 128.828 61.7117 128.199 60.2078L125.939 61.3378L125.276 59.4601L120.094 56.5883L116.092 59.8254H118.7C118.7 62.5358 118.7 65.1443 118.7 67.7527C118.787 68.4578 118.738 69.1732 118.556 69.8598C117.63 71.8565 116.618 73.8192 115.505 75.7139C114.392 77.6086 113.517 79.9622 110.841 80.4295C110.662 80.4295 110.382 80.5314 110.348 80.6504C109.235 83.913 105.743 83.6156 103.5 85.179C103.016 85.5189 102.005 85.0856 101.104 85.0006L99.5745 90.9481C97.5948 89.5972 94.9609 89.6397 94.9184 86.6999C94.1216 86.579 93.319 86.4996 92.5139 86.462C92.4035 86.2156 92.0381 85.3404 91.5793 84.2529C88.784 85.8502 85.7337 86.6489 85.1899 89.3508L78.1718 94.4487L76.2346 93.9559C75.385 95.1624 74.8157 96.5983 73.7621 97.448C71.1282 99.5721 72.4622 101.229 73.8301 103.311C74.9431 105.01 75.4444 107.066 76.2176 108.961L74.9601 109.471L71.9609 102.988C70.2616 102.079 68.8511 101.288 67.4322 100.643C66.693 100.303 65.563 99.6995 65.1382 99.9884C62.0454 102.087 57.6867 102.113 55.6136 105.936C54.94 107.153 54.0799 108.257 53.0646 109.207C51.4844 110.597 50.4812 112.527 50.2523 114.619C49.5726 119.649 48.3151 124.603 47.2105 129.565C46.9582 130.331 46.5633 131.043 46.0465 131.663C45.9701 131.774 45.1204 131.561 45.1119 131.459C44.937 130.602 44.937 129.717 45.1119 128.86C46.7602 124.314 48.3661 119.802 47.304 114.815C47.2598 114.456 47.2956 114.091 47.4087 113.748C47.5218 113.404 47.7094 113.089 47.9582 112.827C50.6686 110.329 50.6941 106.811 51.5523 103.625C51.6967 103.073 50.9915 102.291 50.2948 101.764C51.2804 97.329 47.1086 96.9042 44.908 94.8055L41.8832 96.9042C42.1806 94.95 44.6616 93.3017 42.2231 91.6618C40.7107 90.6423 39.1134 89.7501 37.1932 88.5776C37.652 87.0312 36.6409 86.0712 34.2109 86.3685C33.6841 82.6301 32.7155 79.189 29.113 77.872C30.1456 76.8121 31.0971 75.6761 31.9593 74.4734C32.1292 74.193 31.2371 73.2584 30.5064 72.1114C30.9737 68.5259 30.4469 66.5547 26.9124 66.7416C28.7816 64.8469 28.6712 63.7508 25.8418 61.2444C25.3575 63.7253 24.9412 65.841 24.5504 67.8546H11.7546V67.6932L20.1577 66.3253C23.2589 65.807 24.6608 62.8417 24.0916 59.783C23.6922 57.6588 23.106 56.2059 20.9733 56.0955C19.3026 56.0237 17.6334 56.2688 16.0539 56.8177C10.8455 58.6614 5.71361 60.6921 0.377808 62.3744C1.67728 61.8095 2.94768 61.18 4.18424 60.4882C7.12404 58.6274 10.1318 56.8177 12.8422 54.6851C14.414 53.4531 17.5832 52.8583 19.1976 54.1243C21.7465 56.104 22.9105 55.6707 23.7347 52.6884C23.9131 52.0596 24.8902 51.5583 25.5954 51.176C27.2947 50.2669 29.1045 49.5957 30.6933 48.5506C31.3985 48.0918 31.6534 46.9532 32.2652 45.8487L26.734 45.3559V44.7441H30.8888C30.0803 43.3518 29.1923 42.0071 28.2294 40.7168C27.1418 39.4423 27.2862 38.5842 28.7476 37.896C30.9992 36.8254 31.8998 35.1771 31.2966 32.6706C31.1776 32.1778 31.7979 31.4981 32.0868 30.9033C32.3077 30.436 32.7155 29.9942 32.7495 29.5184C32.6814 28.3579 32.873 27.1969 33.3103 26.1198C32.7835 25.3636 32.2567 24.6074 31.2456 23.18L34.7717 23.7833C35.12 21.7951 36.0546 19.7304 33.1318 18.7958C32.97 18.7083 32.8438 18.5671 32.775 18.3965C31.8828 16.6292 30.9907 14.8534 29.9202 12.7038C31.6789 13.6894 33.5737 14.4031 35.069 15.6691C36.9298 17.19 38.6886 16.2129 40.2604 15.6691C41.0336 15.3887 41.297 13.6809 41.6878 12.8313C42.7669 13.1796 44.1773 14.0293 45.5537 13.9783C47.7118 13.8933 49.802 13.3241 51.9686 14.2502C52.2915 14.3861 53.1666 13.443 53.6679 12.8992C54.4666 12.0496 55.1718 11.132 55.9195 10.2398C56.5822 11.4378 57.3044 12.6104 57.8652 13.8509C57.9755 14.4633 57.9755 15.0906 57.8652 15.7031C60.5246 15.8305 60.0063 17.8272 59.9638 18.9233C62.1134 21.2428 64.7048 22.9421 65.4355 25.2362C65.8944 26.6381 66.2002 28.4139 67.2198 29.1361C68.5708 30.0962 70.508 30.3681 72.2327 30.538C72.6066 30.538 73.3033 29.0001 73.5837 28.0825C74.136 26.2388 75.4784 26.1538 78.6816 28.1505L75.0196 30.3256C75.3 31.0053 75.5974 31.6935 75.7843 32.1268C74.9426 32.28 74.1308 32.5668 73.3798 32.9765C73.1844 33.1464 73.7111 34.2085 73.9066 34.8542C74.6458 34.5313 75.6059 34.3954 76.0902 33.8516C77.5261 32.2713 78.7836 30.5295 80.16 28.7537C81.0861 30.1981 81.409 33.1464 83.907 32.4072C84.7566 34.9562 85.4873 37.2078 86.2775 39.4848C86.5154 40.1645 87.2291 40.8612 87.1271 41.4475C86.6088 44.4977 89.2597 44.2089 90.7891 45.033C91.078 45.186 91.9277 44.8206 92.1571 44.4638C93.3126 42.62 94.0858 40.4449 95.5556 38.9155C96.2948 38.1424 98.2066 38.4992 100.229 38.2698C100.016 37.4202 100.093 35.5254 99.2856 34.9987C98.3085 34.3529 96.5837 34.8457 94.774 34.8457C96.2864 33.9196 98.0366 33.4183 98.4954 32.3647C98.8183 31.6086 97.4929 30.0367 96.7197 28.9661C95.8388 27.7877 94.8672 26.6797 93.8139 25.6525C93.2193 25.1334 92.5827 24.6645 91.9107 24.2506L91.8937 24.3865Z" fill="white"/>
<path id="Vector_2" d="M129.457 80.4439C131.657 80.4439 133.799 80.3844 135.94 80.4439C138.659 80.5458 144.054 85.015 143.468 87.4875C142.924 89.773 140.706 91.8717 138.777 93.5285C137.299 94.803 135.608 94.0043 133.68 93.0102C129.253 90.7586 128.148 87.9803 129.95 83.5196C130.281 82.619 129.601 81.285 129.457 80.4439Z" fill="white"/>
<path id="Vector_3" d="M20.6675 52.9832C19.6564 55.1498 18.3054 56.6792 15.5696 56.8661C14.0912 56.968 12.6637 57.9366 11.2108 58.5654C10.2677 58.9477 9.33312 59.3641 8.39 59.7719C8.27955 59.5255 8.1691 59.2876 8.06714 59.0497L20.1832 52.3289L20.6675 52.9832Z" fill="white"/>
<path id="Vector_4" d="M82.4286 112.085C81.8112 118.129 81.2023 124.184 80.6019 130.25L79.4973 130.148C80.1261 124.122 80.7576 118.098 81.392 112.076L82.4286 112.085Z" fill="white"/>
<path id="Vector_5" d="M100.322 124.549C100.161 127.149 100.093 129.757 99.7701 132.332C99.6937 132.91 98.7336 133.377 98.1898 133.895C97.9264 133.19 97.3401 132.391 97.4591 131.797C98.0878 129.307 98.9375 126.869 99.7022 124.422L100.322 124.549Z" fill="white"/>
<path id="Vector_6" d="M37.3208 0.916595C38.3319 2.69237 39.1985 3.76292 39.4874 4.96943C39.5808 5.36027 38.1704 6.11646 37.4397 6.66873C36.6801 5.72835 36.054 4.68762 35.579 3.576C35.4091 3.1002 36.3777 2.27604 37.3208 0.916595Z" fill="white"/>
<path id="Vector_7" d="M91.9531 29.0826C87.8323 29.0826 84.5866 26.9245 81.29 24.9023L81.7148 23.9592L91.9106 29.1506L91.9531 29.0826Z" fill="white"/>
<path id="Vector_8" d="M60.7456 4.0772L59.1907 14.273L58.2646 14.1286L60.1763 3.98373L60.7456 4.0772Z" fill="white"/>
<path id="Vector_9" d="M78.6476 28.9382L82.3521 27.7741C82.4541 28.2669 82.7515 29.1336 82.641 29.1931C81.5365 29.7538 80.3639 30.1702 79.2424 30.6375L78.6476 28.9382Z" fill="white"/>
<path id="Vector_10" d="M11.8312 78.668L5.49277 83.2051C5.36532 83.0267 5.22938 82.8568 5.10193 82.6869L11.2534 77.9033L11.8312 78.668Z" fill="white"/>
<path id="Vector_11" d="M23.429 39.4821L27.0655 40.7991C25.927 41.6487 24.9838 42.6258 24.7375 42.4984C23.9579 41.883 23.2736 41.1558 22.7068 40.3403L23.429 39.4821Z" fill="white"/>
</g>
</svg>
